<svg width="32" height="24" viewBox="0 0 32 24" fill="none" xmlns="http://www.w3.org/2000/svg">
<rect width="32" height="24" rx="4" fill="#F6F6FA"/>
<path d="M17.6811 8.84377L15.8643 12.7583H15.6805V8.00031H13.0851V16.0024H15.2371C15.8211 16.0024 16.3402 15.6672 16.5889 15.1481L18.4165 11.2444H18.6004V16.0024H21.1958V8.00031H19.0113C18.449 8.00031 17.9191 8.33553 17.6811 8.84377Z" fill="#319B42"/>
<path d="M7.97243 9.04923L6.90182 12.7583H6.71798L5.63656 9.04923C5.45271 8.42204 4.87956 8.00031 4.2307 8.00031H1.66772V16.0024H4.26315V11.2444H4.44699L5.93935 16.0024H7.66963L9.162 11.2444H9.34584V16.0024H11.9413V8.00031H9.37829C8.72943 8.00031 8.14546 8.42204 7.97243 9.04923Z" fill="#319B42"/>
<path d="M22.3243 11.5674V16.0024H24.9206V13.4063H27.7115C28.9231 13.4063 29.9508 12.6383 30.3294 11.5674H22.3243Z" fill="#319B42"/>
<path d="M27.6357 8.00031H21.859C22.216 9.90411 23.8819 11.2454 25.8832 11.2454H30.3725C30.405 11.0724 30.4266 10.8776 30.4266 10.6829C30.4266 9.1361 29.1826 8.00031 27.6357 8.00031Z" fill="url(#paint0_linear_17_4297)"/>
<defs>
<linearGradient id="paint0_linear_17_4297" x1="21.859" y1="9.62287" x2="30.4266" y2="9.62287" gradientUnits="userSpaceOnUse">
<stop stop-color="#00A3E1"/>
<stop offset="0.3042" stop-color="#009ADD"/>
<stop offset="0.7987" stop-color="#0082D4"/>
<stop offset="1" stop-color="#0076CF"/>
</linearGradient>
</defs>
</svg>
